<svg width="9" height="6" viewBox="0 0 9 6" fill="none" xmlns="http://www.w3.org/2000/svg">
<path d="M4.50793 4.17463e-06C4.37389 -0.000383831 4.2411 0.0276179 4.11714 0.0824073C3.99319 0.137197 3.88051 0.217699 3.78555 0.319308L0.298532 4.03281C0.106552 4.24028 -0.000831595 4.52118 4.63738e-06 4.8137C0.000418698 4.95854 0.0273889 5.10187 0.0793754 5.23552C0.131362 5.36916 0.207347 5.4905 0.302991 5.5926C0.398635 5.69471 0.512067 5.77558 0.636808 5.83059C0.761549 5.88561 0.895158 5.9137 1.03001 5.91325C1.16485 5.91281 1.2983 5.88384 1.42272 5.828C1.54715 5.77216 1.66011 5.69055 1.75517 5.58781L4.50793 2.63745L7.32906 5.74747C7.52458 5.92181 7.77367 6.01145 8.02751 5.99883C8.28136 5.9862 8.52166 5.87222 8.70135 5.67922C8.88104 5.48622 8.98716 5.2281 8.99891 4.95544C9.01066 4.68279 8.9272 4.41524 8.76489 4.20523L5.22139 0.316115C5.03131 0.114408 4.77512 0.000897857 4.50793 4.17463e-06Z" fill="white"/>
</svg>
