<svg width="15" height="15" viewBox="0 0 15 15" fill="none" xmlns="http://www.w3.org/2000/svg">
<path d="M7.5 0C3.36496 0 0 3.36496 0 7.5C0 11.635 3.36496 15 7.5 15C11.635 15 15 11.635 15 7.5C15 3.36496 11.635 0 7.5 0ZM10.6105 10.2606C10.5017 10.4615 10.3343 10.6021 10.1401 10.654C10.0848 10.6691 10.0279 10.6758 9.97098 10.6758C9.8404 10.6758 9.70982 10.6373 9.58761 10.5636L7.08649 8.9548C6.99944 8.9029 6.89565 8.84096 6.82534 8.75725C6.48047 8.53962 6.31306 8.31696 6.31306 8.07589V3.63449C6.31306 3.1808 6.66462 2.8125 7.09821 2.8125C7.53013 2.8125 7.88337 3.1808 7.88337 3.63449V7.67913L10.2706 9.14565C10.6607 9.38504 10.8131 9.8856 10.6105 10.2606Z" fill="white"/>
</svg>
