<svg width="18" height="18" viewBox="0 0 18 18" fill="none" xmlns="http://www.w3.org/2000/svg">
<path d="M9 0C13.9705 0 18 4.02947 18 9C18 13.9705 13.9705 18 9 18C4.02947 18 0 13.9705 0 9C0 4.02947 4.02947 0 9 0ZM12.6553 7.12519V5.34375H5.36161V7.12519H8.0505V8.289C5.86462 8.3873 4.21875 8.81817 4.21875 9.33525C4.21875 9.85205 5.86462 10.2831 8.0505 10.3812V14.1162H9.96623V10.3805C12.1437 10.2805 13.7812 9.8505 13.7812 9.33511C13.7812 8.81958 12.1437 8.38941 9.96623 8.2897V7.12519H12.6553ZM12.9577 9.22992C12.9577 9.56995 11.6851 9.85514 9.96623 9.93431L9.85514 9.93895H9.84291L9.73884 9.94275H9.72759C9.65011 9.94556 9.57164 9.94767 9.49219 9.9495H9.48726L9.38081 9.95175H9.35072L9.26663 9.95288H8.7345L8.65125 9.95175H8.62242L8.523 9.94964H8.51203C8.39433 9.94697 8.27831 9.94345 8.16398 9.93895H8.16258L8.04867 9.93403C6.32137 9.85612 5.04056 9.56981 5.04056 9.22823C5.04056 8.88652 6.32166 8.60119 8.04881 8.5223V9.60286C8.34863 9.61833 8.66756 9.62705 8.99831 9.62705C9.33441 9.62705 9.65981 9.61833 9.96469 9.60202V8.52553C11.685 8.60456 12.9577 8.88989 12.9577 9.22992Z" fill="#0E932E"/>
</svg>
