<svg width="400.000000" height="402.000000" viewBox="0 0 400 402" fill="none" xmlns="http://www.w3.org/2000/svg" xmlns:xlink="http://www.w3.org/1999/xlink">
	<desc>
			Created with Pixso.
	</desc>
	<defs/>
	<rect id="矩形 1" y="2.000000" rx="20.000000" width="400.000000" height="400.000000" fill="#555357" fill-opacity="1.000000"/>
	<rect id="矩形 2" x="58.000000" y="64.000000" rx="20.000000" width="318.000000" height="201.000000" fill="#C4C4C4" fill-opacity="1.000000"/>
	<rect id="矩形 2" y="95.742432" rx="20.000000" width="279.932617" height="234.548645" transform="rotate(-20 0.000000 95.742432)" fill="#C4C4C4" fill-opacity="0.480000"/>
	<rect id="组件 1" width="143.330322" height="143.330322" transform="translate(246.000000 244.000000)" fill="#FFFFFF" fill-opacity="0"/>
	<ellipse id="椭圆 1" rx="16.000610" ry="70.500000" transform="matrix(0.707107 -0.707107 0.707107 0.707107 328.165 326.165)" fill="#C4C4C4" fill-opacity="1.000000"/>
	<circle id="椭圆 2" cx="287.000000" cy="285.000000" r="41.000000" fill="#C4C4C4" fill-opacity="1.000000"/>
	<circle id="椭圆 3" cx="287.000000" cy="285.000000" r="35.000000" fill="#FFFFFF" fill-opacity="1.000000"/>
	<ellipse id="椭圆 1" rx="9.830261" ry="52.539246" transform="matrix(0.707107 -0.707107 0.707107 0.707107 331.493 329.494)" fill="#FFFFFF" fill-opacity="1.000000"/>
	<path id="XX?" d="M105.26 101.62L117.73 88.18L106.5 88.18L99.68 95.92L92.62 88.18L81.35 88.18L94.07 101.72L80.92 115.79L92.3 115.79L99.58 107.87L107.03 115.79L118.41 115.79L105.26 101.62ZM146.59 101.62L159.05 88.18L147.83 88.18L141.01 95.92L133.95 88.18L122.68 88.18L135.39 101.72L122.25 115.79L133.62 115.79L140.91 107.87L148.35 115.79L159.73 115.79L146.59 101.62ZM178.6 105.9L187.91 103.31L187.91 88.96L163.57 88.96L163.57 92.6L178.26 92.6L178.26 99.17L168.8 101.62L168.8 109.11L178.6 109.11L178.6 105.9ZM178.6 116.51L178.6 110.55L168.8 110.55L168.8 116.51L178.6 116.51Z" fill="#AAAAAA" fill-opacity="0.680000" fill-rule="evenodd"/>
	<path id="null" d="M245.37 200.79L254.92 200.79L254.92 173.18L245.37 173.18L245.37 200.79ZM258.76 200.79L268.31 200.79L268.31 173.18L258.76 173.18L258.76 200.79ZM192.18 200.69L192.18 184.81L197.99 184.81L201.2 181.35L201.2 200.69L210.37 200.69L210.37 181.35L182.92 181.35L182.92 200.69L192.18 200.69ZM232.26 197.29L223.33 197.29L223.33 181.44L214.21 181.44L214.21 200.79L230.06 200.79L232.26 197.29ZM232.26 197.29L232.26 200.79L241.52 200.79L241.52 181.44L232.26 181.44L232.26 197.29Z" fill="#AAAAAA" fill-opacity="0.680000" fill-rule="evenodd"/>
</svg>
