<svg width="48" height="49" viewBox="0 0 48 49" fill="none" xmlns="http://www.w3.org/2000/svg">
<rect y="0.5" width="48" height="48" rx="24" fill="#FF1A1A"/>
<g clip-path="url(#clip0_183_3721)">
<path fill-rule="evenodd" clip-rule="evenodd" d="M24 26.621L29.303 31.925C29.5844 32.2064 29.966 32.3645 30.364 32.3645C30.762 32.3645 31.1436 32.2064 31.425 31.925C31.7064 31.6436 31.8645 31.262 31.8645 30.864C31.8645 30.4661 31.7064 30.0844 31.425 29.803L26.12 24.5L31.424 19.197C31.5633 19.0577 31.6737 18.8923 31.7491 18.7103C31.8244 18.5282 31.8632 18.3331 31.8631 18.1361C31.8631 17.9392 31.8242 17.7441 31.7488 17.5621C31.6734 17.3801 31.5628 17.2148 31.4235 17.0755C31.2842 16.9362 31.1188 16.8258 30.9367 16.7504C30.7547 16.6751 30.5596 16.6363 30.3626 16.6364C30.1656 16.6364 29.9706 16.6753 29.7886 16.7507C29.6066 16.8261 29.4413 16.9367 29.302 17.076L24 22.379L18.697 17.076C18.5587 16.9327 18.3932 16.8183 18.2103 16.7396C18.0273 16.6609 17.8305 16.6195 17.6313 16.6176C17.4322 16.6158 17.2346 16.6537 17.0502 16.729C16.8659 16.8043 16.6983 16.9156 16.5574 17.0564C16.4165 17.1972 16.3051 17.3646 16.2296 17.5489C16.154 17.7332 16.116 17.9307 16.1176 18.1299C16.1193 18.3291 16.1606 18.5259 16.2391 18.709C16.3176 18.892 16.4318 19.0576 16.575 19.196L21.88 24.5L16.576 29.803C16.2946 30.0844 16.1365 30.4661 16.1365 30.864C16.1365 31.262 16.2946 31.6436 16.576 31.925C16.8574 32.2064 17.239 32.3645 17.637 32.3645C18.035 32.3645 18.4166 32.2064 18.698 31.925L24 26.62V26.621Z" fill="#FEFAFF"/>
</g>
<defs>
<clipPath id="clip0_183_3721">
<rect width="24" height="24" fill="white" transform="translate(12 12.5)"/>
</clipPath>
</defs>
</svg>
